<?xml version="1.0" encoding="UTF-8"?>

<!DOCTYPE svg PUBLIC '-//W3C//DTD SVG 1.0//EN' 'http://www.w3.org/TR/2001/REC-SVG-20010904/DTD/svg10.dtd'>
<svg style="fill-opacity:1; color-interpolation:auto; color-rendering:auto; text-rendering:auto; stroke:black; stroke-linecap:square; stroke-miterlimit:10; stroke-opacity:1; shape-rendering:auto; fill:black; stroke-dasharray:none; font-weight:normal; stroke-width:1; font-family:&apos;sansserif&apos;; font-style:normal; stroke-linejoin:miter; font-size:12; image-rendering:auto; stroke-dashoffset:0;" xmlns="http://www.w3.org/2000/svg" width="1021" xmlns:xlink="http://www.w3.org/1999/xlink" height="773">
  <!--Generated by Selena using Batik-->
  <defs id="genericDefs" />
  <g>
    <defs id="defs1">
      <clipPath clipPathUnits="userSpaceOnUse" id="clipPath1">
        <path d="M0 0 L12000 0 L12000 12000 L0 12000 L0 0 Z" />
      </clipPath>
      <clipPath clipPathUnits="userSpaceOnUse" id="clipPath2">
        <path d="M651 184 L651 304 L851 304 L851 184 Z" />
      </clipPath>
      <clipPath clipPathUnits="userSpaceOnUse" id="clipPath3">
        <path d="M654 187 L654 304 L851 304 L851 187 Z" />
      </clipPath>
      <clipPath clipPathUnits="userSpaceOnUse" id="clipPath4">
        <path d="M0 0 L0 13 L197 13 L197 0 Z" />
      </clipPath>
      <clipPath clipPathUnits="userSpaceOnUse" id="clipPath5">
        <path d="M0 0 L0 16 L195 16 L195 0 Z" />
      </clipPath>
      <clipPath clipPathUnits="userSpaceOnUse" id="clipPath6">
        <path d="M0 0 L0 13 L195 13 L195 0 Z" />
      </clipPath>
      <clipPath clipPathUnits="userSpaceOnUse" id="clipPath7">
        <path d="M311 184 L311 304 L511 304 L511 184 Z" />
      </clipPath>
      <clipPath clipPathUnits="userSpaceOnUse" id="clipPath8">
        <path d="M314 187 L314 304 L511 304 L511 187 Z" />
      </clipPath>
      <clipPath clipPathUnits="userSpaceOnUse" id="clipPath9">
        <path d="M281 13 L281 107 L481 107 L481 13 Z" />
      </clipPath>
      <clipPath clipPathUnits="userSpaceOnUse" id="clipPath10">
        <path d="M284 16 L284 107 L481 107 L481 16 Z" />
      </clipPath>
      <clipPath clipPathUnits="userSpaceOnUse" id="clipPath11">
        <path d="M7 347 L7 441 L207 441 L207 347 Z" />
      </clipPath>
      <clipPath clipPathUnits="userSpaceOnUse" id="clipPath12">
        <path d="M10 350 L10 441 L207 441 L207 350 Z" />
      </clipPath>
      <clipPath clipPathUnits="userSpaceOnUse" id="clipPath13">
        <path d="M0 0 L0 13 L78 13 L78 0 Z" />
      </clipPath>
      <clipPath clipPathUnits="userSpaceOnUse" id="clipPath14">
        <path d="M651 347 L651 483 L851 483 L851 347 Z" />
      </clipPath>
      <clipPath clipPathUnits="userSpaceOnUse" id="clipPath15">
        <path d="M654 350 L654 483 L851 483 L851 350 Z" />
      </clipPath>
      <clipPath clipPathUnits="userSpaceOnUse" id="clipPath16">
        <path d="M0 0 L0 13 L125 13 L125 0 Z" />
      </clipPath>
      <clipPath clipPathUnits="userSpaceOnUse" id="clipPath17">
        <path d="M681 7 L681 114 L881 114 L881 7 Z" />
      </clipPath>
      <clipPath clipPathUnits="userSpaceOnUse" id="clipPath18">
        <path d="M684 10 L684 114 L881 114 L881 10 Z" />
      </clipPath>
      <clipPath clipPathUnits="userSpaceOnUse" id="clipPath19">
        <path d="M0 0 L0 13 L53 13 L53 0 Z" />
      </clipPath>
      <clipPath clipPathUnits="userSpaceOnUse" id="clipPath20">
        <path d="M7 7 L7 140 L205 140 L205 7 Z" />
      </clipPath>
      <clipPath clipPathUnits="userSpaceOnUse" id="clipPath21">
        <path d="M10 10 L10 140 L205 140 L205 10 Z" />
      </clipPath>
      <clipPath clipPathUnits="userSpaceOnUse" id="clipPath22">
        <path d="M0 0 L0 16 L193 16 L193 0 Z" />
      </clipPath>
      <clipPath clipPathUnits="userSpaceOnUse" id="clipPath23">
        <path d="M0 0 L0 13 L193 13 L193 0 Z" />
      </clipPath>
      <clipPath clipPathUnits="userSpaceOnUse" id="clipPath24">
        <path d="M227 347 L227 545 L427 545 L427 347 Z" />
      </clipPath>
      <clipPath clipPathUnits="userSpaceOnUse" id="clipPath25">
        <path d="M230 350 L230 545 L427 545 L427 350 Z" />
      </clipPath>
      <clipPath clipPathUnits="userSpaceOnUse" id="clipPath26">
        <path d="M7 487 L7 685 L172 685 L172 487 Z" />
      </clipPath>
      <clipPath clipPathUnits="userSpaceOnUse" id="clipPath27">
        <path d="M10 490 L10 685 L172 685 L172 490 Z" />
      </clipPath>
      <clipPath clipPathUnits="userSpaceOnUse" id="clipPath28">
        <path d="M0 0 L0 13 L152 13 L152 0 Z" />
      </clipPath>
      <clipPath clipPathUnits="userSpaceOnUse" id="clipPath29">
        <path d="M0 0 L0 16 L160 16 L160 0 Z" />
      </clipPath>
      <clipPath clipPathUnits="userSpaceOnUse" id="clipPath30">
        <path d="M0 0 L0 13 L160 13 L160 0 Z" />
      </clipPath>
      <clipPath clipPathUnits="userSpaceOnUse" id="clipPath31">
        <path d="M0 0 L0 16 L16 16 L16 0 Z" />
      </clipPath>
      <clipPath clipPathUnits="userSpaceOnUse" id="clipPath32">
        <path d="M0 0 L0 180 L245 180 L245 0 Z" />
      </clipPath>
      <clipPath clipPathUnits="userSpaceOnUse" id="clipPath33">
        <path d="M0 0 L0 17 L4 17 L4 0 Z" />
      </clipPath>
      <clipPath clipPathUnits="userSpaceOnUse" id="clipPath34">
        <path d="M414 113 L414 188 L744 188 L744 113 Z" />
      </clipPath>
      <clipPath clipPathUnits="userSpaceOnUse" id="clipPath35">
        <path d="M726 113 L726 129 L744 129 L744 113 Z" />
      </clipPath>
      <clipPath clipPathUnits="userSpaceOnUse" id="clipPath36">
        <path d="M794 117 L794 188 L811 188 L811 117 Z" />
      </clipPath>
      <clipPath clipPathUnits="userSpaceOnUse" id="clipPath37">
        <path d="M794 117 L794 134 L811 134 L811 117 Z" />
      </clipPath>
      <clipPath clipPathUnits="userSpaceOnUse" id="clipPath38">
        <path d="M0 0 L0 64 L685 64 L685 0 Z" />
      </clipPath>
    </defs>
    <g style="fill:white; stroke:white;">
      <rect x="0" y="0" width="1021" style="clip-path:url(#clipPath1); stroke:none;" height="773" />
      <rect x="0" y="0" width="1020" style="clip-path:url(#clipPath1); fill:none; stroke:blue;" height="772" />
      <rect x="654" y="187" transform="translate(3,3)" width="197" style="clip-path:url(#clipPath2); fill:rgb(150,150,150); stroke:none;" height="117" />
      <rect x="654" y="187" transform="translate(3,3)" width="196" style="clip-path:url(#clipPath2); fill:none; stroke:rgb(150,150,150);" height="116" />
      <rect x="654" y="187" width="197" style="font-size:11; clip-path:url(#clipPath3); font-family:&apos;Tahoma&apos;; stroke:none;" height="117" />
    </g>
    <g style="font-size:11; font-family:&apos;Tahoma&apos;;">
      <rect x="654" y="187" width="196" style="clip-path:url(#clipPath3); fill:none;" height="116" />
      <text x="5" y="12" transform="translate(654,192)" style="clip-path:url(#clipPath4); stroke:none; font-weight:bold;" xml:space="preserve">com.ness.fw.cache.fetcher.Re...</text>
      <line transform="translate(655,206)" x1="0" x2="194" y1="9" style="clip-path:url(#clipPath5); fill:none;" y2="9" />
      <text x="5" y="12" transform="translate(655,222)" style="clip-path:url(#clipPath6); stroke:none;" xml:space="preserve">+FETCH_BY_ID_CMD : String</text>
      <line transform="translate(655,222)" x1="5" x2="146" y1="12" style="clip-path:url(#clipPath6); fill:none;" y2="12" />
      <text x="5" y="12" transform="translate(655,235)" style="clip-path:url(#clipPath6); stroke:none;" xml:space="preserve">+FETCH_ALL_CMD : String</text>
      <line transform="translate(655,235)" x1="5" x2="134" y1="12" style="clip-path:url(#clipPath6); fill:none;" y2="12" />
      <line transform="translate(655,248)" x1="0" x2="194" y1="9" style="clip-path:url(#clipPath5); fill:none;" y2="9" />
      <text x="5" y="12" transform="translate(655,264)" style="clip-path:url(#clipPath6); stroke:none;" xml:space="preserve">+fetchByCriteria : Object</text>
      <text x="5" y="12" transform="translate(655,277)" style="clip-path:url(#clipPath6); stroke:none;" xml:space="preserve">+fetchById : Object</text>
      <text x="5" y="12" transform="translate(655,290)" style="clip-path:url(#clipPath6); stroke:none;" xml:space="preserve">+fetchAll : CacheEntityContainer</text>
      <rect x="314" y="187" transform="translate(3,3)" width="197" style="clip-path:url(#clipPath7); fill:rgb(150,150,150); stroke:none;" height="117" />
      <rect x="314" y="187" transform="translate(3,3)" width="196" style="clip-path:url(#clipPath7); fill:none; stroke:rgb(150,150,150);" height="116" />
      <rect x="314" y="187" width="197" style="clip-path:url(#clipPath8); fill:white; stroke:none;" height="117" />
      <rect x="314" y="187" width="196" style="clip-path:url(#clipPath8); fill:none;" height="116" />
      <text x="5" y="12" transform="translate(314,192)" style="clip-path:url(#clipPath4); stroke:none; font-weight:bold;" xml:space="preserve">com.ness.fw.cache.fetcher.Loc...</text>
      <line transform="translate(315,206)" x1="0" x2="194" y1="9" style="clip-path:url(#clipPath5); fill:none;" y2="9" />
      <line transform="translate(315,222)" x1="0" x2="194" y1="9" style="clip-path:url(#clipPath5); fill:none;" y2="9" />
      <text x="5" y="12" transform="translate(315,238)" style="clip-path:url(#clipPath6); stroke:none;" xml:space="preserve">-createCacheEntityContainer : CacheEntityContainer</text>
      <text x="5" y="12" transform="translate(315,251)" style="clip-path:url(#clipPath6); stroke:none;" xml:space="preserve">+fetchAll : CacheEntityContainer</text>
      <text x="5" y="12" transform="translate(315,264)" style="clip-path:url(#clipPath6); stroke:none;" xml:space="preserve">+fetchByCriteria : Object</text>
      <text x="5" y="12" transform="translate(315,277)" style="clip-path:url(#clipPath6); stroke:none;" xml:space="preserve">-createCacheEntityContainer : CacheEntityContainer</text>
      <text x="5" y="12" transform="translate(315,290)" style="clip-path:url(#clipPath6); stroke:none;" xml:space="preserve">+fetchById : Object</text>
      <rect x="284" y="16" transform="translate(3,3)" width="197" style="clip-path:url(#clipPath9); fill:rgb(150,150,150); stroke:none;" height="91" />
      <rect x="284" y="16" transform="translate(3,3)" width="196" style="clip-path:url(#clipPath9); fill:none; stroke:rgb(150,150,150);" height="90" />
      <rect x="284" y="16" width="197" style="clip-path:url(#clipPath10); fill:white; stroke:none;" height="91" />
      <rect x="284" y="16" width="196" style="clip-path:url(#clipPath10); fill:none;" height="90" />
      <text x="5" y="12" transform="translate(284,21)" style="clip-path:url(#clipPath4); stroke:none; font-weight:bold;" xml:space="preserve">com.ness.fw.cache.fetcher.Fetc...</text>
      <line transform="translate(285,35)" x1="0" x2="194" y1="9" style="clip-path:url(#clipPath5); fill:none;" y2="9" />
      <text x="5" y="12" transform="translate(285,51)" style="clip-path:url(#clipPath6); stroke:none;" xml:space="preserve">-fetcher : Fetcher</text>
      <line transform="translate(285,51)" x1="5" x2="91" y1="12" style="clip-path:url(#clipPath6); fill:none;" y2="12" />
      <line transform="translate(285,64)" x1="0" x2="194" y1="9" style="clip-path:url(#clipPath5); fill:none;" y2="9" />
      <text x="5" y="12" transform="translate(285,80)" style="clip-path:url(#clipPath6); stroke:none;" xml:space="preserve">-createFetcher : Fetcher</text>
      <line transform="translate(285,80)" x1="5" x2="124" y1="12" style="clip-path:url(#clipPath6); fill:none;" y2="12" />
      <text x="5" y="12" transform="translate(285,93)" style="clip-path:url(#clipPath6); stroke:none;" xml:space="preserve">+getFetcher : Fetcher</text>
      <line transform="translate(285,93)" x1="5" x2="113" y1="12" style="clip-path:url(#clipPath6); fill:none;" y2="12" />
      <rect x="10" y="350" transform="translate(3,3)" width="197" style="clip-path:url(#clipPath11); fill:rgb(150,150,150); stroke:none;" height="91" />
      <rect x="10" y="350" transform="translate(3,3)" width="196" style="clip-path:url(#clipPath11); fill:none; stroke:rgb(150,150,150);" height="90" />
      <rect x="10" y="350" width="197" style="clip-path:url(#clipPath12); fill:white; stroke:none;" height="91" />
      <rect x="10" y="350" width="196" style="clip-path:url(#clipPath12); fill:none;" height="90" />
      <text x="0" y="12" transform="translate(124,355)" style="clip-path:url(#clipPath13); stroke:none;" xml:space="preserve">BusinessProcess</text>
      <text x="5" y="12" transform="translate(10,368)" style="clip-path:url(#clipPath4); stroke:none; font-weight:bold;" xml:space="preserve">com.ness.fw.cache.fetcher.Fetc...</text>
      <line transform="translate(11,382)" x1="0" x2="194" y1="9" style="clip-path:url(#clipPath5); fill:none;" y2="9" />
      <line transform="translate(11,398)" x1="0" x2="194" y1="9" style="clip-path:url(#clipPath5); fill:none;" y2="9" />
      <text x="5" y="12" transform="translate(11,414)" style="clip-path:url(#clipPath6); stroke:none;" xml:space="preserve">+fetchAll : CacheEntityContainer</text>
      <line transform="translate(11,414)" x1="5" x2="164" y1="12" style="clip-path:url(#clipPath6); fill:none;" y2="12" />
      <text x="5" y="12" transform="translate(11,427)" style="clip-path:url(#clipPath6); stroke:none;" xml:space="preserve">+fetchById : Object</text>
      <line transform="translate(11,427)" x1="5" x2="102" y1="12" style="clip-path:url(#clipPath6); fill:none;" y2="12" />
      <rect x="654" y="350" transform="translate(3,3)" width="197" style="clip-path:url(#clipPath14); fill:rgb(150,150,150); stroke:none;" height="133" />
      <rect x="654" y="350" transform="translate(3,3)" width="196" style="clip-path:url(#clipPath14); fill:none; stroke:rgb(150,150,150);" height="132" />
      <rect x="654" y="350" width="197" style="clip-path:url(#clipPath15); fill:white; stroke:none;" height="133" />
      <rect x="654" y="350" width="196" style="clip-path:url(#clipPath15); fill:none;" height="132" />
      <text x="0" y="12" transform="translate(721,355)" style="clip-path:url(#clipPath16); stroke:none;" xml:space="preserve">BusinessProcessContainer</text>
      <text x="5" y="12" transform="translate(654,368)" style="clip-path:url(#clipPath4); stroke:none; font-weight:bold;" xml:space="preserve">com.ness.fw.cache.fetcher.Fetc...</text>
      <line transform="translate(655,382)" x1="0" x2="194" y1="9" style="clip-path:url(#clipPath5); fill:none;" y2="9" />
      <line transform="translate(655,398)" x1="0" x2="194" y1="9" style="clip-path:url(#clipPath5); fill:none;" y2="9" />
      <text x="5" y="12" transform="translate(655,414)" style="clip-path:url(#clipPath6); stroke:none;" xml:space="preserve">+FetcherBPC</text>
      <text x="5" y="12" transform="translate(655,427)" style="clip-path:url(#clipPath6); stroke:none;" xml:space="preserve">+FetcherBPC</text>
      <line transform="translate(655,440)" x1="0" x2="194" y1="9" style="clip-path:url(#clipPath5); fill:none;" y2="9" />
      <text x="5" y="12" transform="translate(655,456)" style="clip-path:url(#clipPath6); stroke:none;" xml:space="preserve"> key : Object</text>
      <text x="5" y="12" transform="translate(655,469)" style="clip-path:url(#clipPath6); stroke:none;" xml:space="preserve"> entityName : String</text>
      <rect x="684" y="10" transform="translate(3,3)" width="197" style="clip-path:url(#clipPath17); fill:rgb(150,150,150); stroke:none;" height="104" />
      <rect x="684" y="10" transform="translate(3,3)" width="196" style="clip-path:url(#clipPath17); fill:none; stroke:rgb(150,150,150);" height="103" />
      <rect x="684" y="10" width="197" style="clip-path:url(#clipPath18); fill:white; stroke:none;" height="104" />
      <rect x="684" y="10" width="196" style="clip-path:url(#clipPath18); fill:none;" height="103" />
      <text x="5" y="12" transform="translate(756,15)" style="clip-path:url(#clipPath19); stroke:none;" xml:space="preserve">interface</text>
      <text x="5" y="11" transform="translate(684,28)" style="clip-path:url(#clipPath4); font-style:italic; stroke:none; font-weight:bold;" xml:space="preserve">com.ness.fw.cache.fetcher.Fetc...</text>
      <line transform="translate(685,42)" x1="0" x2="194" y1="9" style="clip-path:url(#clipPath5); fill:none;" y2="9" />
      <line transform="translate(685,58)" x1="0" x2="194" y1="9" style="clip-path:url(#clipPath5); fill:none;" y2="9" />
      <text x="5" y="11" transform="translate(685,74)" style="clip-path:url(#clipPath6); font-style:italic; stroke:none;" xml:space="preserve">+fetchAll : CacheEntityContainer</text>
      <text x="5" y="11" transform="translate(685,87)" style="clip-path:url(#clipPath6); font-style:italic; stroke:none;" xml:space="preserve">+fetchById : Object</text>
      <text x="5" y="11" transform="translate(685,100)" style="clip-path:url(#clipPath6); font-style:italic; stroke:none;" xml:space="preserve">+fetchByCriteria : Object</text>
      <rect x="10" y="10" transform="translate(3,3)" width="195" style="clip-path:url(#clipPath20); fill:rgb(150,150,150); stroke:none;" height="130" />
      <rect x="10" y="10" transform="translate(3,3)" width="194" style="clip-path:url(#clipPath20); fill:none; stroke:rgb(150,150,150);" height="129" />
      <rect x="10" y="10" width="195" style="clip-path:url(#clipPath21); fill:white; stroke:none;" height="130" />
      <rect x="10" y="10" width="194" style="clip-path:url(#clipPath21); fill:none;" height="129" />
      <text x="5" y="12" transform="translate(10,15)" style="clip-path:url(#clipPath6); stroke:none; font-weight:bold;" xml:space="preserve">com.ness.fw.cache.CacheFactory</text>
      <line transform="translate(11,29)" x1="0" x2="192" y1="9" style="clip-path:url(#clipPath22); fill:none;" y2="9" />
      <text x="5" y="12" transform="translate(11,45)" style="clip-path:url(#clipPath23); stroke:none;" xml:space="preserve">-instance : CacheFactory</text>
      <line transform="translate(11,45)" x1="5" x2="126" y1="12" style="clip-path:url(#clipPath23); fill:none;" y2="12" />
      <text x="5" y="12" transform="translate(11,58)" style="clip-path:url(#clipPath23); stroke:none;" xml:space="preserve">-allCaches : Map</text>
      <line transform="translate(11,71)" x1="0" x2="192" y1="9" style="clip-path:url(#clipPath22); fill:none;" y2="9" />
      <text x="5" y="12" transform="translate(11,87)" style="clip-path:url(#clipPath23); stroke:none;" xml:space="preserve">-CacheFactory</text>
      <text x="5" y="12" transform="translate(11,100)" style="clip-path:url(#clipPath23); stroke:none;" xml:space="preserve">-createCache : Cache</text>
      <text x="5" y="12" transform="translate(11,113)" style="clip-path:url(#clipPath23); stroke:none;" xml:space="preserve">+initialize : void</text>
      <text x="5" y="12" transform="translate(11,126)" style="clip-path:url(#clipPath23); stroke:none;" xml:space="preserve">+getEntityCache : Cache</text>
      <rect x="230" y="350" transform="translate(3,3)" width="197" style="clip-path:url(#clipPath24); fill:rgb(150,150,150); stroke:none;" height="195" />
      <rect x="230" y="350" transform="translate(3,3)" width="196" style="clip-path:url(#clipPath24); fill:none; stroke:rgb(150,150,150);" height="194" />
      <rect x="230" y="350" width="197" style="clip-path:url(#clipPath25); fill:white; stroke:none;" height="195" />
      <rect x="230" y="350" width="196" style="clip-path:url(#clipPath25); fill:none;" height="194" />
      <text x="5" y="12" transform="translate(302,355)" style="clip-path:url(#clipPath19); stroke:none;" xml:space="preserve">interface</text>
      <text x="5" y="11" transform="translate(230,368)" style="clip-path:url(#clipPath4); font-style:italic; stroke:none; font-weight:bold;" xml:space="preserve">com.ness.fw.cache.CacheEvent...</text>
      <line transform="translate(231,382)" x1="0" x2="194" y1="9" style="clip-path:url(#clipPath5); fill:none;" y2="9" />
      <line transform="translate(231,398)" x1="0" x2="194" y1="9" style="clip-path:url(#clipPath5); fill:none;" y2="9" />
      <text x="5" y="11" transform="translate(231,414)" style="clip-path:url(#clipPath6); font-style:italic; stroke:none;" xml:space="preserve">+handleGet : Object</text>
      <text x="5" y="11" transform="translate(231,427)" style="clip-path:url(#clipPath6); font-style:italic; stroke:none;" xml:space="preserve">+handlePutAll : void</text>
      <text x="5" y="11" transform="translate(231,440)" style="clip-path:url(#clipPath6); font-style:italic; stroke:none;" xml:space="preserve">+handlePutAll : void</text>
      <text x="5" y="11" transform="translate(231,453)" style="clip-path:url(#clipPath6); font-style:italic; stroke:none;" xml:space="preserve">+handlePut : void</text>
      <text x="5" y="11" transform="translate(231,466)" style="clip-path:url(#clipPath6); font-style:italic; stroke:none;" xml:space="preserve">+handleClear : void</text>
      <text x="5" y="11" transform="translate(231,479)" style="clip-path:url(#clipPath6); font-style:italic; stroke:none;" xml:space="preserve">+handlePut : void</text>
      <text x="5" y="11" transform="translate(231,492)" style="clip-path:url(#clipPath6); font-style:italic; stroke:none;" xml:space="preserve">+handleRemove : void</text>
      <text x="5" y="11" transform="translate(231,505)" style="clip-path:url(#clipPath6); font-style:italic; stroke:none;" xml:space="preserve">+handleKeySet : Set</text>
      <text x="5" y="11" transform="translate(231,518)" style="clip-path:url(#clipPath6); font-style:italic; stroke:none;" xml:space="preserve">+handlePut : void</text>
      <text x="5" y="11" transform="translate(231,531)" style="clip-path:url(#clipPath6); font-style:italic; stroke:none;" xml:space="preserve">+handleGetAll : CacheEntityContainer</text>
      <rect x="10" y="490" transform="translate(3,3)" width="162" style="clip-path:url(#clipPath26); fill:rgb(150,150,150); stroke:none;" height="195" />
      <rect x="10" y="490" transform="translate(3,3)" width="161" style="clip-path:url(#clipPath26); fill:none; stroke:rgb(150,150,150);" height="194" />
      <rect x="10" y="490" width="162" style="clip-path:url(#clipPath27); fill:white; stroke:none;" height="195" />
      <rect x="10" y="490" width="161" style="clip-path:url(#clipPath27); fill:none;" height="194" />
      <text x="5" y="12" transform="translate(64,495)" style="clip-path:url(#clipPath19); stroke:none;" xml:space="preserve">interface</text>
      <text x="5" y="11" transform="translate(15,508)" style="clip-path:url(#clipPath28); font-style:italic; stroke:none; font-weight:bold;" xml:space="preserve">com.ness.fw.cache.Cache</text>
      <line transform="translate(11,522)" x1="0" x2="159" y1="9" style="clip-path:url(#clipPath29); fill:none;" y2="9" />
      <line transform="translate(11,538)" x1="0" x2="159" y1="9" style="clip-path:url(#clipPath29); fill:none;" y2="9" />
      <text x="5" y="11" transform="translate(11,554)" style="clip-path:url(#clipPath30); font-style:italic; stroke:none;" xml:space="preserve">+remove : void</text>
      <text x="5" y="11" transform="translate(11,567)" style="clip-path:url(#clipPath30); font-style:italic; stroke:none;" xml:space="preserve">+put : void</text>
      <text x="5" y="11" transform="translate(11,580)" style="clip-path:url(#clipPath30); font-style:italic; stroke:none;" xml:space="preserve">+initalize : void</text>
      <text x="5" y="11" transform="translate(11,593)" style="clip-path:url(#clipPath30); font-style:italic; stroke:none;" xml:space="preserve">+get : Object</text>
      <text x="5" y="11" transform="translate(11,606)" style="clip-path:url(#clipPath30); font-style:italic; stroke:none;" xml:space="preserve">+put : void</text>
      <text x="5" y="11" transform="translate(11,619)" style="clip-path:url(#clipPath30); font-style:italic; stroke:none;" xml:space="preserve">+take : Object</text>
      <text x="5" y="11" transform="translate(11,632)" style="clip-path:url(#clipPath30); font-style:italic; stroke:none;" xml:space="preserve">+clear : void</text>
      <text x="5" y="11" transform="translate(11,645)" style="clip-path:url(#clipPath30); font-style:italic; stroke:none;" xml:space="preserve">+getAll : CacheEntityContainer</text>
      <text x="5" y="11" transform="translate(11,658)" style="clip-path:url(#clipPath30); font-style:italic; stroke:none;" xml:space="preserve">+containsKey : boolean</text>
      <text x="5" y="11" transform="translate(11,671)" style="clip-path:url(#clipPath30); font-style:italic; stroke:none;" xml:space="preserve">+putAll : void</text>
      <image x="0" y="0" transform="translate(2,680)" width="16" xlink:href="images/pngImage1.png" style="clip-path:url(#clipPath31);" height="16" />
      <text x="16" y="13" transform="translate(2,680)" style="clip-path:url(#clipPath31); stroke:none;" xml:space="preserve"></text>
      <image x="0" y="0" transform="translate(222,540)" width="16" xlink:href="images/pngImage1.png" style="clip-path:url(#clipPath31);" height="16" />
      <text x="16" y="13" transform="translate(222,540)" style="clip-path:url(#clipPath31); stroke:none;" xml:space="preserve"></text>
      <image x="0" y="0" transform="translate(2,135)" width="16" xlink:href="images/pngImage1.png" style="clip-path:url(#clipPath31);" height="16" />
      <text x="16" y="13" transform="translate(2,135)" style="clip-path:url(#clipPath31); stroke:none;" xml:space="preserve"></text>
      <path d="M182 143 L182 179 L244 179 L244 117 L208 117" style="fill:none; clip-path:url(#clipPath32); stroke:blue;" />
      <text x="2" y="14" style="clip-path:url(#clipPath33); fill:blue; stroke:none;" xml:space="preserve"></text>
      <image x="0" y="0" transform="translate(676,109)" width="16" xlink:href="images/pngImage1.png" style="clip-path:url(#clipPath31); fill:blue; stroke:blue;" height="16" />
      <text x="16" y="13" transform="translate(676,109)" style="clip-path:url(#clipPath31); stroke:none;" xml:space="preserve"></text>
      <image x="0" y="0" transform="translate(646,478)" width="16" xlink:href="images/pngImage1.png" style="clip-path:url(#clipPath31);" height="16" />
      <text x="16" y="13" transform="translate(646,478)" style="clip-path:url(#clipPath31); stroke:none;" xml:space="preserve"></text>
      <image x="0" y="0" transform="translate(2,436)" width="16" xlink:href="images/pngImage1.png" style="clip-path:url(#clipPath31);" height="16" />
      <text x="16" y="13" transform="translate(2,436)" style="clip-path:url(#clipPath31); stroke:none;" xml:space="preserve"></text>
      <image x="0" y="0" transform="translate(276,102)" width="16" xlink:href="images/pngImage1.png" style="clip-path:url(#clipPath31);" height="16" />
      <text x="16" y="13" transform="translate(276,102)" style="clip-path:url(#clipPath31); stroke:none;" xml:space="preserve"></text>
      <image x="0" y="0" transform="translate(306,299)" width="16" xlink:href="images/pngImage1.png" style="clip-path:url(#clipPath31);" height="16" />
      <text x="16" y="13" transform="translate(306,299)" style="clip-path:url(#clipPath31); stroke:none;" xml:space="preserve"></text>
      <image x="0" y="0" transform="translate(646,299)" width="16" xlink:href="images/pngImage1.png" style="clip-path:url(#clipPath31);" height="16" />
      <text x="16" y="13" transform="translate(646,299)" style="clip-path:url(#clipPath31); stroke:none;" xml:space="preserve"></text>
    </g>
    <g style="font-size:11; stroke-linecap:butt; fill:rgb(0,127,0); font-family:&apos;Tahoma&apos;; stroke-dasharray:18,6; stroke:rgb(0,127,0);">
      <path d="M414 187 L743 117" style="fill:none; clip-path:url(#clipPath34);" />
      <polygon style="fill:white; clip-path:url(#clipPath35); stroke:none;" points=" 743 117 729 128 726 113" />
      <polygon points=" 743 117 729 128 726 113" style="fill:none; stroke-dasharray:none; clip-path:url(#clipPath35); stroke-linecap:square;" />
      <path d="M802 187 L802 117" style="fill:none; clip-path:url(#clipPath36);" />
      <polygon style="fill:white; clip-path:url(#clipPath37); stroke:none;" points=" 802 117 810 133 794 133" />
      <polygon points=" 802 117 810 133 794 133" style="fill:none; stroke-dasharray:none; clip-path:url(#clipPath37); stroke-linecap:square;" />
    </g>
    <g style="fill:blue; font-size:11; font-family:&apos;Tahoma&apos;; stroke:blue;">
      <path d="M484 63 L684 63" style="fill:none; clip-path:url(#clipPath38);" />
      <text x="2" y="14" style="clip-path:url(#clipPath33); stroke:none;" xml:space="preserve"></text>
    </g>
  </g>
</svg>
